<svg width="40" height="24" viewBox="0 0 40 24" fill="none" xmlns="http://www.w3.org/2000/svg">
<rect x="0.5" y="0.5" width="39" height="23" rx="4.04936" fill="white" stroke="#D6D8EA"/>
<path d="M16 19C19.866 19 23 15.866 23 12C23 8.13401 19.866 5 16 5C12.134 5 9 8.13401 9 12C9 15.866 12.134 19 16 19Z" fill="#EB001B"/>
<path d="M24 19C27.866 19 31 15.866 31 12C31 8.13401 27.866 5 24 5C20.134 5 17 8.13401 17 12C17 15.866 20.134 19 24 19Z" fill="#F79E1B"/>
<path d="M23 11.9998C23 9.5998 21.8 7.4998 20 6.2998C18.2 7.5998 17 9.6998 17 11.9998C17 14.2998 18.2 16.4998 20 17.6998C21.8 16.4998 23 14.3998 23 11.9998Z" fill="#FF5F00"/>
</svg>
