<svg width="8" height="8" viewBox="0 0 8 8" fill="none" xmlns="http://www.w3.org/2000/svg">
<path d="M2.02637 7.50017C2.02648 7.36761 2.07924 7.24051 2.17303 7.14684L4.73037 4.5895C4.80777 4.51212 4.86918 4.42024 4.91107 4.31912C4.95296 4.218 4.97452 4.10962 4.97452 4.00017C4.97452 3.89072 4.95296 3.78233 4.91107 3.68122C4.86918 3.5801 4.80777 3.48822 4.73037 3.41084L2.17637 0.855169C2.08529 0.760867 2.03489 0.634566 2.03603 0.503468C2.03717 0.372369 2.08975 0.246963 2.18246 0.154259C2.27516 0.0615551 2.40057 0.00897061 2.53167 0.0078314C2.66277 0.00669219 2.78907 0.0570894 2.88337 0.148168L5.43737 2.70184C5.78078 3.04592 5.97365 3.5122 5.97365 3.99834C5.97365 4.48447 5.78078 4.95075 5.43737 5.29484L2.88003 7.85217C2.81021 7.92204 2.72125 7.96967 2.62438 7.98903C2.52752 8.00839 2.42709 7.99863 2.33576 7.96098C2.24444 7.92332 2.16632 7.85946 2.11125 7.77745C2.05619 7.69544 2.02665 7.59895 2.02637 7.50017Z" fill="#84849A"/>
</svg>
